<svg xmlns="http://www.w3.org/2000/svg" width="800" height="360" viewBox="0 0 800 360" fill="none">
  <defs>
    <linearGradient id="bg" x1="0" y1="0" x2="800" y2="360" gradientUnits="userSpaceOnUse">
      <stop offset="0" stop-color="#0b1120"/>
      <stop offset="0.55" stop-color="#111c34"/>
      <stop offset="1" stop-color="#1e1b3a"/>
    </linearGradient>
    <linearGradient id="accent" x1="40" y1="0" x2="770" y2="360" gradientUnits="userSpaceOnUse">
      <stop offset="0" stop-color="#38bdf8"/>
      <stop offset="1" stop-color="#a78bfa"/>
    </linearGradient>
  </defs>
  <rect width="800" height="360" fill="url(#bg)"/>
  <text x="48" y="58" font-family="'Special Elite', monospace" font-size="17" letter-spacing="4" fill="#7dd3fc" opacity="0.85">SELF-DESIGNED HONORS EXPERIENCE</text>
  <text x="46" y="146" font-family="'Playfair Display', Georgia, serif" font-size="64" font-weight="800" font-style="italic" fill="#f8fafc">Learning Out Loud</text>
  <text x="50" y="196" font-family="'Inter', sans-serif" font-size="26" font-weight="500" fill="#c4b5fd">My Journey into AI</text>
  <g transform="translate(0 6)"><rect x="48.0" y="278.9" width="6" height="26.2" rx="3" fill="url(#accent)" opacity="0.45"/><rect x="60.3" y="272.0" width="6" height="40.0" rx="3" fill="url(#accent)" opacity="0.46"/><rect x="72.5" y="270.0" width="6" height="44.0" rx="3" fill="url(#accent)" opacity="0.47"/><rect x="84.8" y="274.7" width="6" height="34.5" rx="3" fill="url(#accent)" opacity="0.48"/><rect x="97.1" y="275.7" width="6" height="32.6" rx="3" fill="url(#accent)" opacity="0.49"/><rect x="109.3" y="272.6" width="6" height="38.7" rx="3" fill="url(#accent)" opacity="0.51"/><rect x="121.6" y="275.4" width="6" height="33.1" rx="3" fill="url(#accent)" opacity="0.52"/><rect x="133.9" y="280.1" width="6" height="23.8" rx="3" fill="url(#accent)" opacity="0.53"/><rect x="146.1" y="270.5" width="6" height="43.0" rx="3" fill="url(#accent)" opacity="0.54"/><rect x="158.4" y="267.0" width="6" height="50.0" rx="3" fill="url(#accent)" opacity="0.55"/><rect x="170.7" y="271.8" width="6" height="40.4" rx="3" fill="url(#accent)" opacity="0.56"/><rect x="182.9" y="271.4" width="6" height="41.1" rx="3" fill="url(#accent)" opacity="0.57"/><rect x="195.2" y="266.7" width="6" height="50.5" rx="3" fill="url(#accent)" opacity="0.58"/><rect x="207.5" y="271.0" width="6" height="42.1" rx="3" fill="url(#accent)" opacity="0.59"/><rect x="219.7" y="281.8" width="6" height="20.4" rx="3" fill="url(#accent)" opacity="0.61"/><rect x="232.0" y="271.3" width="6" height="41.3" rx="3" fill="url(#accent)" opacity="0.62"/><rect x="244.3" y="266.4" width="6" height="51.2" rx="3" fill="url(#accent)" opacity="0.63"/><rect x="256.5" y="271.0" width="6" height="42.0" rx="3" fill="url(#accent)" opacity="0.64"/><rect x="268.8" y="268.6" width="6" height="46.9" rx="3" fill="url(#accent)" opacity="0.65"/><rect x="281.1" y="261.5" width="6" height="61.0" rx="3" fill="url(#accent)" opacity="0.66"/><rect x="293.3" y="265.3" width="6" height="53.4" rx="3" fill="url(#accent)" opacity="0.67"/><rect x="305.6" y="276.7" width="6" height="30.5" rx="3" fill="url(#accent)" opacity="0.68"/><rect x="317.9" y="269.0" width="6" height="46.1" rx="3" fill="url(#accent)" opacity="0.69"/><rect x="330.1" y="268.4" width="6" height="47.2" rx="3" fill="url(#accent)" opacity="0.71"/><rect x="342.4" y="273.1" width="6" height="37.7" rx="3" fill="url(#accent)" opacity="0.72"/><rect x="354.7" y="268.4" width="6" height="47.2" rx="3" fill="url(#accent)" opacity="0.73"/><rect x="366.9" y="258.5" width="6" height="67.0" rx="3" fill="url(#accent)" opacity="0.74"/><rect x="379.2" y="261.1" width="6" height="61.7" rx="3" fill="url(#accent)" opacity="0.75"/><rect x="391.5" y="272.1" width="6" height="39.9" rx="3" fill="url(#accent)" opacity="0.76"/><rect x="403.7" y="261.7" width="6" height="60.6" rx="3" fill="url(#accent)" opacity="0.77"/><rect x="416.0" y="262.3" width="6" height="59.3" rx="3" fill="url(#accent)" opacity="0.78"/><rect x="428.3" y="275.8" width="6" height="32.4" rx="3" fill="url(#accent)" opacity="0.79"/><rect x="440.5" y="271.4" width="6" height="41.3" rx="3" fill="url(#accent)" opacity="0.81"/><rect x="452.8" y="258.9" width="6" height="66.2" rx="3" fill="url(#accent)" opacity="0.82"/><rect x="465.1" y="260.1" width="6" height="63.7" rx="3" fill="url(#accent)" opacity="0.83"/><rect x="477.3" y="269.7" width="6" height="44.6" rx="3" fill="url(#accent)" opacity="0.84"/><rect x="489.6" y="255.8" width="6" height="72.4" rx="3" fill="url(#accent)" opacity="0.85"/><rect x="501.9" y="254.8" width="6" height="74.4" rx="3" fill="url(#accent)" opacity="0.86"/><rect x="514.1" y="268.8" width="6" height="46.4" rx="3" fill="url(#accent)" opacity="0.87"/><rect x="526.4" y="269.6" width="6" height="44.8" rx="3" fill="url(#accent)" opacity="0.88"/><rect x="538.7" y="262.5" width="6" height="59.0" rx="3" fill="url(#accent)" opacity="0.89"/><rect x="550.9" y="262.9" width="6" height="58.1" rx="3" fill="url(#accent)" opacity="0.91"/><rect x="563.2" y="271.1" width="6" height="41.9" rx="3" fill="url(#accent)" opacity="0.92"/><rect x="575.5" y="253.1" width="6" height="77.7" rx="3" fill="url(#accent)" opacity="0.93"/><rect x="587.7" y="249.6" width="6" height="84.8" rx="3" fill="url(#accent)" opacity="0.94"/><rect x="600.0" y="262.9" width="6" height="58.1" rx="3" fill="url(#accent)" opacity="0.95"/><line x1="632" y1="252" x2="700" y2="238" stroke="url(#accent)" stroke-width="1.5" opacity="0.5"/><line x1="632" y1="252" x2="700" y2="292" stroke="url(#accent)" stroke-width="1.5" opacity="0.5"/><line x1="632" y1="300" x2="700" y2="292" stroke="url(#accent)" stroke-width="1.5" opacity="0.5"/><line x1="632" y1="300" x2="700" y2="346" stroke="url(#accent)" stroke-width="1.5" opacity="0.5"/><line x1="700" y1="238" x2="760" y2="266" stroke="url(#accent)" stroke-width="1.5" opacity="0.5"/><line x1="700" y1="292" x2="760" y2="266" stroke="url(#accent)" stroke-width="1.5" opacity="0.5"/><line x1="700" y1="292" x2="760" y2="318" stroke="url(#accent)" stroke-width="1.5" opacity="0.5"/><line x1="700" y1="346" x2="760" y2="318" stroke="url(#accent)" stroke-width="1.5" opacity="0.5"/><circle cx="632" cy="252" r="7" fill="#0f172a" stroke="url(#accent)" stroke-width="2.5"/><circle cx="632" cy="300" r="7" fill="#0f172a" stroke="url(#accent)" stroke-width="2.5"/><circle cx="700" cy="238" r="7" fill="#0f172a" stroke="url(#accent)" stroke-width="2.5"/><circle cx="700" cy="292" r="7" fill="#0f172a" stroke="url(#accent)" stroke-width="2.5"/><circle cx="700" cy="346" r="7" fill="#0f172a" stroke="url(#accent)" stroke-width="2.5"/><circle cx="760" cy="266" r="7" fill="#0f172a" stroke="url(#accent)" stroke-width="2.5"/><circle cx="760" cy="318" r="7" fill="#0f172a" stroke="url(#accent)" stroke-width="2.5"/></g>
  <circle cx="36" cy="286" r="13" fill="none" stroke="#38bdf8" stroke-width="2.5"/>
  <path d="M32 280 v12 l10 -6 z" fill="#38bdf8"/>
</svg>